<?xml version="1.0" encoding="utf-8"?>
<!-- Generator: Adobe Illustrator 26.1.0, SVG Export Plug-In . SVG Version: 6.00 Build 0)  -->
<svg version="1.1" id="Layer_1" xmlns="http://www.w3.org/2000/svg" xmlns:xlink="http://www.w3.org/1999/xlink" x="0px" y="0px"
	 viewBox="0 0 1080 1080" style="enable-background:new 0 0 1080 1080;" xml:space="preserve">
<style type="text/css">
	.st0{fill:none;}
	.st1{fill:#FFFFFF;}
</style>
<g id="Layer_4">
	<path d="M914.7,414.6c0,220-252,511-342.6,608.6c-16.4,17.7-44.1,18.8-61.8,2.4c-0.8-0.7-1.6-1.5-2.3-2.3
		c-90.8-97.3-343-387.4-342.5-608.6c0-205.3,167.7-371.7,374.7-371.7S914.7,209.3,914.7,414.6z"/>
</g>
<g id="Layer_1_00000167373169747338395920000010781977847537028281_">
	<circle cx="540.1" cy="417.5" r="353.4"/>
	<path class="st0" d="M540.1,792.1c-206.9,0-374.7-167.7-374.8-374.6S333,42.8,539.9,42.8c206.9,0,374.7,167.7,374.8,374.6
		c0,99.4-39.4,194.7-109.7,264.9C734.9,752.8,639.5,792.4,540.1,792.1z M540.1,85.3c-183.2,0-332.2,149-332.2,332.2
		s149,332.2,332.2,332.2s332.2-149,332.2-332.2S723.3,85.3,540.1,85.3L540.1,85.3z"/>
	<path class="st1" d="M769.3,304l-96.5,301.6h-84.4l-48.2-161.1l-48.2,161.1h-84.4L310.9,304h96.5l43.4,161.6l47-161.6h84.4
		l47,161.6L672.8,304H769.3z"/>
</g>
</svg>
